# AST/ASF file generated using VICON BodyLanguage
# -----------------------------------------------
:version 1.10
:name VICON
:units
  mass 1.0
  length 0.45
  angle deg
:documentation
   .ast/.asf automatically generated from VICON data using
   VICON BodyBuilder and BodyLanguage model FoxedUp or BRILLIANT.MOD
:root
   order TX TY TZ RX RY RZ
   axis XYZ
   position 0 0 0  
   orientation 0 0 0 
:bonedata
  begin
     id 1 
     name lhipjoint
     direction 0.543289 -0.788407 0.288535 
     length 2.57127 
     axis 0 0 0  XYZ
  end
  begin
     id 2 
     name lfemur
     direction 0.34202 -0.939693 0  
     length 8.47298  
     axis 0 0 20  XYZ
    dof rx ry rz
    limits (-160.0 20.0)
           (-70.0 70.0)
           (-60.0 70.0)
  end
  begin
     id 3 
     name ltibia
     direction 0.34202 -0.939693 0   
     length 8.13367   
     axis 0 0 20   XYZ
    dof rx
    limits (-10.0 170.0)
  end
  begin
     id 4 
     name lfoot
     direction 0.114037 -0.313314 0.942778   
     length 2.67113   
     axis -90 7.62852e-016 20   XYZ
    dof rx rz
    limits (-45.0 90.0)
           (-70.0 20.0)
  end
  begin
     id 5 
     name ltoes
     direction 1.536e-011 -4.21847e-011 1   
     length 1.32217   
     axis -90 7.62852e-016 20   XYZ
    dof rx
    limits (-90.0 20.0)
  end
  begin
     id 6 
     name rhipjoint
     direction -0.571293 -0.770752 0.282074   
     length 2.63017  
     axis 0 0 0  XYZ 
  end
  begin
     id 7 
     name rfemur
     direction -0.34202 -0.939693 0   
     length 8.60885   
     axis 0 0 -20   XYZ
    dof rx ry rz
    limits (-160.0 20.0)
           (-70.0 70.0)
           (-70.0 60.0)
  end
  begin
     id 8 
     name rtibia
     direction -0.34202 -0.939693 0   
     length 8.07673   
     axis 0 0 -20   XYZ
    dof rx
    limits (-10.0 170.0)
 end
 begin
     id 9 
     name rfoot
     direction -0.121336 -0.333368 0.934956   
     length 2.81602  
     axis -90 -7.62852e-016 -20   XYZ
    dof rx rz
    limits (-45.0 90.0)
           (-20.0 70.0)
  end
  begin
     id 10 
     name rtoes
     direction -1.53491e-011 -4.21808e-011 1   
     length 1.38905   
     axis -90 -7.62852e-016 -20   XYZ
    dof rx
    limits (-90.0 20.0)
  end
  begin
     id 11 
     name lowerback
     direction 0.0136776 0.999869 -0.00861835   
     length 2.14087   
     axis 0 0 0   XYZ
    dof rx ry rz
    limits (-20.0 45.0)
           (-30.0 30.0)
           (-30.0 30.0)
  end
  begin
     id 12 
     name upperback
     direction -0.00789158 0.999804 0.0181308   
     length 2.14151   
     axis 0 0 0   XYZ
    dof rx ry rz
    limits (-20.0 45.0)
           (-30.0 30.0)
           (-30.0 30.0)
  end
  begin
     id 13 
     name thorax
     direction -0.0135231 0.999666 0.0220247   
     length 2.13644   
     axis 0 0 0   XYZ
    dof rx ry rz
    limits (-20.0 45.0)
           (-30.0 30.0)
           (-30.0 30.0)
  end
  begin
     id 14 
     name lowerneck
     direction -0.0392259 0.997317 0.0618018   
     length 1.65045   
     axis 0 0 0   XYZ
    dof rx ry rz
    limits (-20.0 45.0)
           (-30.0 30.0)
           (-30.0 30.0)
  end
  begin
     id 15 
     name upperneck
     direction 0.0765547 0.994276 -0.0745319   
     length 1.66045   
     axis 0 0 0   XYZ
    dof rx ry rz
    limits (-20.0 45.0)
           (-30.0 30.0)
           (-30.0 30.0)
  end
  begin
     id 16
     name head
     direction 0.0241564 0.999031 -0.036785  
     length 1.66594  
     axis 0 0 0   XYZ
    dof rx ry rz
    limits (-20.0 45.0)
           (-30.0 30.0)
           (-30.0 30.0)
  end
  begin
     id 17 
     name lclavicle
     direction 0.967398 0.249018 0.0461573  
     length 3.75176  
     axis 0 0 0   XYZ
    dof ry rz
    limits (-20.0 10.0)
           (0.0 20.0)
  end
  begin
     id 18 
     name lhumerus
     direction 1 -4.48963e-011 -3.05005e-027   
     length 5.93342   
     axis 180 -30 -90   XYZ
    dof rx ry rz
    limits (-60.0 90.0)
           (-90.0 90.0)
           (-90.0 90.0)
  end
  begin
     id 19
     name lradius
     direction 1 -4.48957e-011 1.07006e-026   
     length 3.94763   
     axis 180 -30 -90   XYZ
    dof rx
    limits (-10.0 170.0)
  end
  begin
     id 20
     name lwrist
     direction 1 -4.48978e-011 1.92422e-026   
     length 1.97382   
     axis -1.18182e-014 90 90   XYZ
    dof ry
    limits (-180.0 0.0)
 end
  begin
     id 21 
     name lhand
     direction 1 -4.48931e-011 3.84844e-026   
     length 0.560187   
     axis -2.45563e-014 90 90   XYZ
    dof rx rz
    limits (-90.0 90.0)
           (-45.0 45.0)
  end
  begin
     id 22 
     name lfingers
     direction 1 -4.48952e-011 7.69687e-026   
     length 0.451637   
     axis -4.91126e-014 90 90   XYZ
    dof rx
    limits (0.0 90.0)
  end
  begin
     id 23
     name lthumb
     direction 0.707107 -6.34901e-011 0.707107   
     length 0.648463   
     axis -90 45 2.85299e-015   XYZ
    dof rx rz
    limits (-45.0 45.0)
           (-45.0 45.0)
  end
  begin
     id 24 
     name rclavicle
     direction -0.965946 0.258716 0.00371831   
     length 3.63667  
     axis 0 0 0   XYZ 
    dof ry rz
    limits (-10.0 20.0)
           (-20.0 0.0)
  end
  begin
     id 25 
     name rhumerus
     direction -1 -4.48966e-011 -1.78361e-028  
     length 6.28647   
     axis 180 30 90   XYZ
    dof rx ry rz
    limits (-90.0 60.0)
           (-90.0 90.0)
           (-90.0 90.0)
  end
  begin
     id 26 
     name rradius
     direction -1 -4.48961e-011 1.05248e-026   
     length 3.81645   
     axis 180 30 90   XYZ
    dof rx
    limits (-10.0 170.0)
  end
  begin
     id 27 
     name rwrist
     direction -1 -4.48979e-011 1.92422e-026   
     length 1.90822   
     axis -1.18182e-014 -90 -90   XYZ
    dof ry
    limits (-180.0 0.0)
  end
  begin
     id 28
     name rhand
     direction -1 -4.48937e-011 3.84844e-026   
     length 0.646185   
     axis -2.45563e-014 -90 -90   XYZ
    dof rx rz
    limits (-90.0 90.0)
           (-45.0 45.0)
  end
  begin
     id 29
     name rfingers
     direction -1 -4.48953e-011 7.69687e-026   
     length 0.520971   
     axis -4.91126e-014 -90 -90   XYZ
    dof rx
    limits (0.0 90.0)
  end
  begin
     id 30
     name rthumb
     direction -0.707107 -6.3494e-011 0.707107   
     length 0.748013   
     axis -90 -45 -2.85299e-015   XYZ
    dof rx rz
    limits (-45.0 45.0)
           (-45.0 45.0)
  end
:hierarchy
  begin
    root lhipjoint rhipjoint lowerback
    lhipjoint lfemur
    lfemur ltibia
    ltibia lfoot
    lfoot ltoes
    rhipjoint rfemur
    rfemur rtibia
    rtibia rfoot
    rfoot rtoes
    lowerback upperback
    upperback thorax
    thorax lowerneck lclavicle rclavicle
    lowerneck upperneck
    upperneck head
    lclavicle lhumerus
    lhumerus lradius
    lradius lwrist
    lwrist lhand lthumb
    lhand lfingers
    rclavicle rhumerus
    rhumerus rradius
    rradius rwrist
    rwrist rhand rthumb
    rhand rfingers
  end

#!OML:ASF H:\HAZMAT1\Patient Classification 1\Patient 3\Session 1\dancer.ASF
:FULLY-SPECIFIED
:DEGREES
45
upperback 4.538370 -10.576100 1.031240
rfoot -13.016100 5.404420
lradius 41.299301
lthumb 14.673600 38.379299
rradius 33.645599
lwrist -20.548000
rhand -28.722799 -29.889999
rhumerus -60.246700 7.133350 -43.386902
lowerneck -5.150250 3.710340 3.180690
lhand -11.360100 8.918530
ltibia 67.971397
head 10.178100 3.750750 -4.822920
rwrist 9.188350
lfingers 7.125020
rtoes -33.169498
lowerback -5.967360 -7.268800 9.078920
rfingers 7.125020
lclavicle 0.000000 -0.000000
upperneck 26.497400 9.713350 -15.044500
rfemur 7.868950 12.485900 3.669090
thorax 6.711740 -4.735480 -4.994480
rclavicle 0.000000 -0.000000
rtibia 61.098400
lfoot -13.852000 -4.737400
lhumerus 36.194099 -15.873800 12.401800
rthumb -2.083990 -59.859600
root 10.251100 17.483200 -11.717700 -635.588989 82.096603 -265.520996
ltoes -3.370610
lfemur -24.261101 -0.624289 -27.003201
46
upperback 3.113470 -9.064620 1.888210
rfoot -17.377399 7.167550
lradius 23.110701
lthumb -1.236950 54.359100
rradius 27.538700
lwrist -25.756100
rhand -27.838800 -37.430500
rhumerus -62.355701 -0.709131 -41.805401
lowerneck -4.664790 3.522800 3.644610
lhand -27.845800 24.382900
ltibia 64.596603
head 10.763600 3.730220 -4.542630
rwrist 12.388600
lfingers 7.125020
rtoes -33.864601
lowerback -7.998260 -5.844520 11.056400
rfingers 7.125020
lclavicle 0.000000 -0.000000
upperneck 28.580000 9.360310 -13.745300
rfemur 9.934080 14.989100 3.895840
thorax 6.413390 -3.970680 -5.212440
rclavicle 0.000000 -0.000000
rtibia 57.189602
lfoot -19.023001 -4.828840
lhumerus 50.649101 24.637600 31.106800
rthumb -1.230200 -67.406700
root 10.382400 17.489401 -11.631600 -677.617981 80.823303 -306.665985
ltoes -5.063750
lfemur -19.668699 2.017160 -24.720699
47
upperback 2.168130 -8.539380 0.655461
rfoot -38.415298 -9.550770
lradius 19.847200
lthumb -4.318440 57.867802
rradius 27.294701
lwrist -26.180201
rhand -29.142599 -38.081600
rhumerus -65.874298 -6.452600 -53.368999
lowerneck -4.593420 4.220970 3.650280
lhand -31.036600 27.931900
ltibia 58.104599
head 9.466620 3.681090 -2.772800
rwrist 14.886700
lfingers 7.125020
rtoes -19.835400
lowerback -5.618830 -5.989870 6.953330
rfingers 7.125020
lclavicle -0.000000 0.000000
upperneck 26.097799 8.332220 -8.649240
rfemur 7.805950 7.573170 7.900520
thorax 4.492080 -4.021900 -3.900940
rclavicle -0.000000 0.000000
rtibia 42.899601
lfoot -21.780500 -2.444140
lhumerus 56.430302 25.616501 34.934502
rthumb -2.489430 -68.046799
root 9.215870 17.639799 -10.961000 -681.405029 81.188499 -318.960999
ltoes 0.033901
lfemur -28.612101 0.326774 -20.541800
48
upperback 2.029430 -9.108360 0.470975
rfoot -36.188801 -17.324699
lradius 15.893500
lthumb -2.226810 56.959599
rradius 27.249500
lwrist -28.800800
rhand -28.659599 -35.710300
rhumerus -64.796303 -8.740100 -56.939899
lowerneck -5.736980 6.740530 5.387480
lhand -28.870701 26.991501
ltibia 46.678101
head 6.438160 4.621350 -1.666440
rwrist 16.497999
lfingers 7.125020
rtoes -4.865070
lowerback -1.655890 -6.690930 6.452700
rfingers 7.125020
lclavicle -0.000000 0.000000
upperneck 16.497299 9.494890 -4.744570
rfemur -17.406200 13.175300 14.598800
thorax 2.104410 -4.425570 -3.312960
rclavicle -0.000000 0.000000
rtibia 37.751400
lfoot -12.039700 12.309900
lhumerus 46.512001 16.989700 51.655499
rthumb -2.023000 -65.680397
root 7.422830 18.490900 -10.310700 -703.849976 81.880798 -360.785004
ltoes 4.880870
lfemur -49.324902 -8.282100 -6.262950
49
upperback 2.935740 -10.931700 -1.417440
rfoot -32.938900 -20.174299
lradius 10.016400
lthumb 1.833150 54.214500
rradius 17.927099
lwrist -59.004002
rhand -25.999399 -31.834600
rhumerus -70.290802 -9.207400 -55.284801
lowerneck -6.395490 9.157270 7.715450
lhand -24.667000 24.242599
ltibia 42.657001
head 2.710090 5.880210 -1.623520
rwrist 28.059000
lfingers 7.125020
rtoes -4.462150
lowerback 1.925650 -8.281650 4.164900
rfingers 7.125020
lclavicle -0.000000 0.000000
upperneck 2.888260 11.735900 -2.677380
rfemur -39.208099 14.585200 8.363810
thorax 0.919606 -5.366300 -3.521070
rclavicle -0.000000 0.000000
rtibia 37.493401
lfoot -10.994400 16.967199
lhumerus 27.399401 30.809799 77.067902
rthumb 0.546285 -61.813702
root 6.884520 18.828501 -10.348900 -685.859009 82.347099 -360.213989
ltoes 11.333400
lfemur -65.464500 -5.819050 -7.694230
50
upperback 1.241940 -9.266170 -2.152190
rfoot -31.733700 -28.971500
lradius 8.519930
lthumb 1.355170 55.066002
rradius 15.803400
lwrist -66.325401
rhand -22.250900 -26.673100
rhumerus -70.473198 -9.120190 -61.547401
lowerneck -5.941630 9.266380 6.530410
lhand -25.161900 25.090599
ltibia 37.042400
head -0.342428 6.152040 -0.790571
rwrist 35.255100
lfingers 7.125020
rtoes -8.624780
lowerback 4.015820 -7.022000 1.436780
rfingers 7.125020
lclavicle 0.000000 -0.000000
upperneck -5.445890 12.280800 0.132380
rfemur -52.653099 25.021900 -8.239980
thorax -1.533040 -4.604370 -2.471500
rclavicle 0.000000 -0.000000
rtibia 28.959600
lfoot -19.985500 32.969101
lhumerus 11.663500 37.941799 72.052597
rthumb 4.166470 -56.612099
root 7.874070 19.098600 -11.262000 -684.622986 76.073196 -375.226013
ltoes 21.963100
lfemur -76.335098 -8.433450 3.745830
51
upperback -0.365442 -2.772080 -2.614030
rfoot 7.100840 -26.157600
lradius 10.866100
lthumb 7.348140 55.543098
rradius 13.682600
lwrist -62.230202
rhand -13.395100 -20.202600
rhumerus -66.547302 -9.323730 -76.942001
lowerneck -5.241850 2.460060 3.545970
lhand -18.955500 25.690701
ltibia 36.375500
head -1.724290 1.852800 1.312610
rwrist 44.380299
lfingers 7.125020
rtoes 18.086901
lowerback 4.803630 -2.081970 0.979267
rfingers 7.125020
lclavicle -0.000000 -0.000000
upperneck -8.121530 3.815520 6.084610
rfemur -29.250700 13.813500 10.477300
thorax -3.247180 -1.407240 -3.036150
rclavicle -0.000000 -0.000000
rtibia 22.393200
lfoot -17.985500 36.150501
lhumerus -14.395800 26.507299 46.453999
rthumb 12.712300 -49.795700
root 9.029260 19.257299 -11.659800 -702.028992 80.042198 -396.734009
ltoes 22.174000
lfemur -78.408997 -10.953800 8.793750
52
upperback -2.851330 4.695890 0.925664
rfoot 34.264400 -12.659400
lradius 10.722500
lthumb 10.714000 57.711102
rradius 12.374400
lwrist -52.952400
rhand -5.285360 -6.124440
rhumerus -50.196999 9.932750 -90.234802
lowerneck -7.126310 -7.310350 -3.955030
lhand -15.467300 28.004299
ltibia 36.312199
head 1.473080 -4.667250 2.054340
rwrist 51.206699
lfingers 7.125020
rtoes 27.159599
lowerback 1.198970 3.314760 5.420210
rfingers 7.125020
lclavicle 0.000000 -0.000000
upperneck -0.739907 -9.533120 5.480760
rfemur 0.988669 -17.740499 25.029100
thorax -3.265420 2.243580 -2.245100
rclavicle 0.000000 -0.000000
rtibia 62.554501
lfoot -7.576340 19.631201
lhumerus -50.283401 10.350200 28.707800
rthumb 20.519199 -35.060101
root 9.806950 19.545799 -11.957500 -822.400024 82.836098 -510.654999
ltoes 12.414100
lfemur -70.500198 -5.484560 -17.412500
53
upperback -2.538430 6.289730 0.228964
rfoot 38.673401 -1.784780
lradius 9.611300
lthumb 23.077000 56.598202
rradius 19.071301
lwrist -52.948299
rhand -8.344980 -15.455300
rhumerus -4.671590 35.647701 -74.694199
lowerneck -7.751650 -5.626240 -3.498700
lhand -2.621630 27.959999
ltibia 30.325701
head 3.875970 -3.612500 1.146900
rwrist 36.983002
lfingers 7.125020
rtoes 32.022800
lowerback 0.105247 4.608910 4.863590
rfingers 7.125020
lclavicle -0.000000 -0.000000
upperneck 6.794570 -7.375280 2.910010
rfemur -8.927950 -15.857100 8.985660
thorax -2.183100 3.072660 -2.569050
rclavicle -0.000000 -0.000000
rtibia 126.315002
lfoot -16.261200 29.300501
lhumerus -82.619102 9.080970 17.240400
rthumb 17.576900 -44.680801
root 9.682620 19.568199 -12.436300 -738.471008 84.027603 -418.726013
ltoes 23.542900
lfemur -58.131802 -11.680500 -11.726400
54
upperback -0.541701 -0.993914 -0.825603
rfoot 28.738600 -6.845150
lradius 9.154770
lthumb 27.387800 48.344799
rradius 36.781502
lwrist -56.128300
rhand -15.598100 -13.053900
rhumerus 54.850700 25.352699 -37.596699
lowerneck -5.245710 -1.006570 0.882013
lhand 1.877870 20.315100
ltibia 30.107401
head 5.689050 -0.468574 0.625575
rwrist 13.655900
lfingers 7.125020
rtoes 29.801600
lowerback 1.574520 -0.850441 7.014760
rfingers 7.125020
lclavicle 0.000000 0.000000
upperneck 15.940200 -1.657630 2.770660
rfemur -51.340000 -13.060000 21.453300
thorax -1.580390 -0.569180 -4.763350
rclavicle 0.000000 0.000000
rtibia 116.441002
lfoot -17.032301 15.278100
lhumerus -62.033100 24.810200 48.722500
rthumb 10.587900 -42.767200
root 9.738680 19.618000 -12.466100 -765.794006 85.832802 -429.825989
ltoes 4.560930
lfemur -38.796001 -3.965910 -21.596500
55
upperback 0.030480 -6.116780 -0.508739
rfoot 29.496000 -16.502199
lradius 12.840700
lthumb 22.242201 48.978100
rradius 50.058800
lwrist -33.336201
rhand -21.909500 -14.162300
rhumerus 71.262901 -24.392200 -38.121899
lowerneck -4.659230 -0.775959 2.565000
lhand -3.491530 20.237900
ltibia 41.013000
head 7.850320 0.020853 1.270140
rwrist 11.835600
lfingers 7.125020
rtoes 32.657398
lowerback 2.245950 -4.740280 7.878170
rfingers 7.125020
lclavicle -0.000000 -0.000000
upperneck 22.871500 -1.951570 5.534400
rfemur -74.135803 -5.497340 13.555300
thorax -2.104750 -3.134360 -4.624550
rclavicle -0.000000 -0.000000
rtibia 76.682098
lfoot -20.459000 6.385330
lhumerus -29.856800 13.254100 74.406799
rthumb 4.496200 -44.094601
root 10.293700 19.226101 -12.064000 -845.242981 77.223999 -498.972992
ltoes 7.376820
lfemur -31.871000 -2.898020 -16.126600
56
upperback 1.038900 -7.489890 -2.945790
rfoot 28.370300 -22.321800
lradius 10.493300
lthumb 18.670200 51.828800
rradius 52.717201
lwrist -45.916000
rhand -30.860901 -23.462500
rhumerus 80.100197 -42.123699 -50.880699
lowerneck -4.480000 0.034768 3.429730
lhand -7.208620 22.704800
ltibia 36.502800
head 9.129820 0.798663 2.143840
rwrist 16.972900
lfingers 7.125020
rtoes 34.597099
lowerback 2.827120 -5.720750 5.710110
rfingers 7.125020
lclavicle 0.000000 -0.000000
upperneck 26.604200 -1.486480 8.172010
rfemur -74.008003 3.792580 3.971530
thorax -1.628460 -3.773470 -5.851300
rclavicle 0.000000 -0.000000
rtibia 45.305302
lfoot -22.324400 3.013040
lhumerus -25.023300 22.967699 63.085701
rthumb -4.148820 -53.401901
root 11.216000 19.307800 -11.796800 -847.403015 76.408096 -493.738007
ltoes 4.549230
lfemur -18.262199 -0.874128 -13.598700
57
upperback 0.989570 -5.798370 -4.255130
rfoot 32.381199 -18.986099
lradius 12.751700
lthumb 9.036420 54.182800
rradius 54.723999
lwrist -37.459900
rhand -35.226601 -28.052700
rhumerus 72.145103 -39.240700 -45.634300
lowerneck -5.198250 -1.480310 2.977640
lhand -17.206200 24.396299
ltibia 40.927601
head 10.595700 0.008722 2.550230
rwrist 21.765400
lfingers 7.125020
rtoes 34.463501
lowerback 1.213880 -4.399510 4.704350
rfingers 7.125020
lclavicle 0.000000 0.000000
upperneck 29.881300 -3.950600 9.400800
rfemur -64.269997 4.640350 14.340000
thorax -0.568843 -2.889970 -6.917670
rclavicle 0.000000 0.000000
rtibia 46.545399
lfoot -27.522400 4.448010
lhumerus -28.080601 20.976000 55.754700
rthumb -8.363430 -57.867100
root 12.409700 18.847900 -11.580400 -855.523987 76.487602 -497.013000
ltoes 5.620760
lfemur -10.863700 -3.588700 -13.831400
